<?xml version="1.0" encoding="UTF-8" standalone="no"?><!DOCTYPE svg PUBLIC "-//W3C//DTD SVG 1.1//EN" "http://www.w3.org/Graphics/SVG/1.1/DTD/svg11.dtd"><svg width="100%" height="100%" viewBox="0 0 341 47" version="1.1" xmlns="http://www.w3.org/2000/svg" xmlns:xlink="http://www.w3.org/1999/xlink" xml:space="preserve" xmlns:serif="http://www.serif.com/" style="fill-rule:evenodd;clip-rule:evenodd;stroke-linejoin:round;stroke-miterlimit:2;"><g><g><g><path d="M72.554,45.262l0,-33.75l17.484,0c3.589,0 6.405,0.815 8.449,2.446c2.045,1.631 3.067,3.877 3.067,6.738c0,1.8 -0.424,3.336 -1.271,4.608c-0.847,1.272 -2.032,2.181 -3.554,2.725l0,0.174c1.539,0 2.728,0.415 3.566,1.246c0.839,0.831 1.258,2.066 1.258,3.704l0,12.108l-7.066,0l0,-12.833l-14.867,0l0,12.833l-7.067,0Zm7.067,-18.95l9.933,0c1.617,0 2.865,-0.379 3.746,-1.137c0.881,-0.759 1.321,-1.824 1.321,-3.196c0,-1.395 -0.44,-2.465 -1.321,-3.212c-0.881,-0.747 -2.129,-1.121 -3.746,-1.121l-9.933,0l0,8.667Z" style="fill:#111113;fill-rule:nonzero;"/><path d="M119.288,45.762c-2.711,0 -5.067,-0.535 -7.067,-1.604c-2,-1.069 -3.542,-2.585 -4.625,-4.546c-1.083,-1.961 -1.625,-4.273 -1.625,-6.934c0,-2.661 0.531,-4.957 1.592,-6.887c1.061,-1.931 2.572,-3.418 4.533,-4.462c1.961,-1.045 4.27,-1.567 6.925,-1.567c2.605,0 4.847,0.502 6.725,1.505c1.878,1.003 3.318,2.434 4.321,4.296c1.003,1.861 1.505,4.086 1.505,6.675l0,2.316l-18.95,0c0.266,1.861 0.968,3.281 2.104,4.258c1.136,0.978 2.643,1.467 4.521,1.467c1.45,0 2.606,-0.25 3.47,-0.75c0.864,-0.5 1.477,-1.275 1.838,-2.326l6.934,0c-0.55,2.684 -1.899,4.781 -4.046,6.292c-2.147,1.511 -4.865,2.266 -8.154,2.266Zm-6.525,-15.809l12.184,0c-0.239,-1.561 -0.859,-2.738 -1.859,-3.533c-1,-0.795 -2.347,-1.192 -4.042,-1.192c-1.672,0 -3.045,0.403 -4.12,1.208c-1.075,0.806 -1.796,1.978 -2.163,3.516Z" style="fill:#111113;fill-rule:nonzero;"/><path d="M137.488,45.262l0,-18.167l-3.417,0l0,-6.833l7,0l0,4.083l1.75,0c0.967,-1.433 2.184,-2.548 3.654,-3.346c1.47,-0.797 3.31,-1.196 5.521,-1.196c3.472,0 6.155,0.95 8.049,2.85c1.895,1.9 2.842,4.444 2.842,7.633l0,14.975l-6.917,0l0,-13.658c0,-1.85 -0.49,-3.255 -1.471,-4.213c-0.98,-0.958 -2.418,-1.438 -4.312,-1.438c-1.889,0 -3.325,0.479 -4.309,1.438c-0.983,0.958 -1.475,2.363 -1.475,4.213l0,13.658l-6.917,0Z" style="fill:#111113;fill-rule:nonzero;"/><path d="M176.121,45.262c-1.789,0 -3.177,-0.454 -4.163,-1.363c-0.986,-0.908 -1.479,-2.293 -1.479,-4.154l0,-14.083l-4.292,0l0,-5.4l4.367,0l0,-7.5l6.767,0l0,7.5l5.766,0l0,5.4l-5.691,0l0,14.184l6.292,0l0,5.417l-7.566,0Z" style="fill:#111113;fill-rule:nonzero;"/><path d="M195.538,45.72c-2.956,0 -5.267,-0.712 -6.934,-2.137c-1.667,-1.425 -2.5,-3.315 -2.5,-5.671c0,-2.455 0.862,-4.352 2.587,-5.691c1.725,-1.339 4.196,-2.008 7.413,-2.008l7.167,0l0,-0.967c0,-2.678 -1.614,-4.016 -4.842,-4.016c-2.789,0 -4.48,0.972 -5.075,2.917l-6.867,0c0.544,-2.744 1.832,-4.828 3.862,-6.25c2.031,-1.422 4.721,-2.133 8.071,-2.133c3.722,0 6.564,0.835 8.525,2.505c1.961,1.669 2.942,4.098 2.942,7.287l0,8.875l3.25,0l0,6.833l-7,0l0,-4.083l-1.75,0c-0.861,1.456 -2.011,2.577 -3.45,3.363c-1.439,0.786 -3.239,1.179 -5.4,1.179Zm1.033,-5.25c1.294,0 2.446,-0.233 3.454,-0.7c1.009,-0.467 1.802,-1.101 2.38,-1.904c0.578,-0.803 0.867,-1.696 0.867,-2.679l0,-0.375l-6.842,0c-2.483,0 -3.725,0.922 -3.725,2.766c0,0.917 0.343,1.628 1.029,2.133c0.686,0.506 1.632,0.758 2.838,0.758Z" style="fill:#111113;fill-rule:nonzero;"/><path d="M217.804,45.262l0,-33.75l17.342,0c2.033,0 3.81,0.358 5.329,1.075c1.52,0.717 2.71,1.721 3.571,3.012c0.861,1.292 1.292,2.793 1.292,4.505c0,1.678 -0.444,3.112 -1.333,4.304c-0.889,1.192 -2.089,2.074 -3.6,2.646l0,0.167c1.289,0.333 2.429,0.89 3.421,1.671c0.992,0.78 1.77,1.736 2.333,2.867c0.564,1.13 0.846,2.423 0.846,3.879c0,1.917 -0.468,3.594 -1.404,5.033c-0.936,1.439 -2.234,2.564 -3.896,3.375c-1.661,0.811 -3.597,1.217 -5.808,1.217l-18.092,0Zm7.067,-6.15l9.775,0c1.706,0 3.014,-0.374 3.925,-1.121c0.911,-0.747 1.367,-1.813 1.367,-3.196c0,-1.389 -0.454,-2.442 -1.363,-3.158c-0.908,-0.717 -2.204,-1.075 -3.887,-1.075l-9.816,0l0,8.55Zm0,-14.15l9.283,0c1.333,0 2.353,-0.314 3.058,-0.941c0.706,-0.628 1.059,-1.531 1.059,-2.708c0,-1.206 -0.353,-2.115 -1.059,-2.729c-0.705,-0.614 -1.725,-0.921 -3.058,-0.921l-9.283,0l0,7.3Z" style="fill:#111113;fill-rule:nonzero;"/><path d="M259.538,45.72c-2.956,0 -5.267,-0.712 -6.934,-2.137c-1.667,-1.425 -2.5,-3.315 -2.5,-5.671c0,-2.455 0.862,-4.352 2.587,-5.691c1.725,-1.339 4.196,-2.008 7.413,-2.008l7.167,0l0,-0.967c0,-2.678 -1.614,-4.016 -4.842,-4.016c-2.789,0 -4.48,0.972 -5.075,2.917l-6.867,0c0.544,-2.744 1.832,-4.828 3.862,-6.25c2.031,-1.422 4.721,-2.133 8.071,-2.133c3.722,0 6.564,0.835 8.525,2.505c1.961,1.669 2.942,4.098 2.942,7.287l0,8.875l3.25,0l0,6.833l-7,0l0,-4.083l-1.75,0c-0.861,1.456 -2.011,2.577 -3.45,3.363c-1.439,0.786 -3.239,1.179 -5.4,1.179Zm1.033,-5.25c1.294,0 2.446,-0.233 3.454,-0.7c1.009,-0.467 1.802,-1.101 2.38,-1.904c0.578,-0.803 0.867,-1.696 0.867,-2.679l0,-0.375l-6.842,0c-2.483,0 -3.725,0.922 -3.725,2.766c0,0.917 0.343,1.628 1.029,2.133c0.686,0.506 1.632,0.758 2.838,0.758Z" style="fill:#111113;fill-rule:nonzero;"/><path d="M291.979,45.762c-3.678,0 -6.575,-0.774 -8.692,-2.321c-2.116,-1.547 -3.261,-3.707 -3.433,-6.479l6.684,0c0.217,1.211 0.786,2.106 1.708,2.684c0.922,0.578 2.264,0.867 4.025,0.867c2.85,0 4.275,-0.794 4.275,-2.383c0,-0.645 -0.215,-1.154 -0.646,-1.529c-0.431,-0.375 -1.146,-0.657 -2.146,-0.846l-5.558,-1.066c-4.994,-0.967 -7.492,-3.311 -7.492,-7.033c0,-2.406 0.958,-4.322 2.875,-5.75c1.917,-1.428 4.558,-2.142 7.924,-2.142c3.384,0 6.057,0.733 8.021,2.2c1.964,1.467 3.04,3.528 3.229,6.184l-6.667,0c-0.283,-1.161 -0.816,-2.007 -1.6,-2.537c-0.783,-0.531 -1.914,-0.796 -3.392,-0.796c-1.261,0 -2.23,0.188 -2.908,0.562c-0.678,0.375 -1.017,0.932 -1.017,1.671c0,0.545 0.21,0.993 0.629,1.346c0.42,0.352 1.066,0.612 1.938,0.779l5.683,1.1c2.611,0.511 4.528,1.355 5.75,2.533c1.222,1.178 1.833,2.767 1.833,4.767c0,2.572 -0.947,4.58 -2.842,6.025c-1.894,1.444 -4.622,2.167 -8.183,2.167Z" style="fill:#111113;fill-rule:nonzero;"/><path d="M318.871,45.762c-2.711,0 -5.067,-0.535 -7.067,-1.604c-2,-1.069 -3.542,-2.585 -4.625,-4.546c-1.083,-1.961 -1.625,-4.273 -1.625,-6.934c0,-2.661 0.531,-4.957 1.592,-6.887c1.061,-1.931 2.572,-3.418 4.533,-4.462c1.961,-1.045 4.27,-1.567 6.925,-1.567c2.605,0 4.847,0.502 6.725,1.505c1.878,1.003 3.318,2.434 4.321,4.296c1.003,1.861 1.505,4.086 1.505,6.675l0,2.316l-18.95,0c0.266,1.861 0.968,3.281 2.104,4.258c1.136,0.978 2.643,1.467 4.521,1.467c1.45,0 2.606,-0.25 3.47,-0.75c0.864,-0.5 1.477,-1.275 1.838,-2.326l6.934,0c-0.55,2.684 -1.899,4.781 -4.046,6.292c-2.147,1.511 -4.865,2.266 -8.154,2.266Zm-6.525,-15.809l12.184,0c-0.239,-1.561 -0.859,-2.738 -1.859,-3.533c-1,-0.795 -2.347,-1.192 -4.042,-1.192c-1.672,0 -3.045,0.403 -4.12,1.208c-1.075,0.806 -1.796,1.978 -2.163,3.516Z" style="fill:#111113;fill-rule:nonzero;"/></g><g><rect x="0" y="23.392" width="23.392" height="23.392" style="fill:#111113;"/><path d="M0,12.083l0,-12.083l47.602,-0l-0,46.784l-12.083,0l0,-34.701l-35.519,0Z" style="fill:#111113;"/></g></g><rect x="333.732" y="38.284" width="6.987" height="6.987" style="fill:#111113;"/></g></svg>